PathFileType	4	(X/Y/Z)	D:\telocate\uwb01-Unnamed.trc
DataRate	CameraRate	NumFrames	NumMarkers	Units	OrigDataRate	OrigDataStartFrame	OrigNumFrames
100.00	100.00	      202	0	mm	100.00	1	      7534
Frame#	Time	
		

1	0.000	2087.80811	-2103.02734	1212.53271	
2	0.010	2087.90283	-2102.75024	1212.61841	
3	0.020	2087.89282	-2102.54736	1212.56616	
4	0.030	2087.95508	-2102.50464	1212.53357	
5	0.040	2087.94702	-2102.43042	1212.52844	
6	0.050	2087.99268	-2102.38330	1212.50000	
7	0.060	2087.97534	-2102.36377	1212.33008	
8	0.070	2087.98096	-2102.29761	1212.33325	
9	0.080	2087.99902	-2102.22534	1212.32239	
10	0.090	2088.08545	-2102.06250	1212.51709	
11	0.100	2088.08472	-2102.21680	1212.38000	
12	0.110	2088.01221	-2102.03296	1212.16101	
13	0.120	2088.04346	-2101.97876	1212.34583	
14	0.130	2088.07324	-2102.04053	1212.38855	
15	0.140	2088.11499	-2102.09058	1212.52136	
16	0.150	2088.05371	-2102.30151	1212.49670	
17	0.160	2088.04224	-2102.26172	1212.47949	
18	0.170	2088.08643	-2102.34546	1212.46863	
19	0.180	2088.09546	-2102.42993	1212.50098	
20	0.190	2088.06763	-2102.45361	1212.50049	
21	0.200	2088.39380	-2101.70703	1212.71387	
22	0.210	2088.21094	-2102.00293	1212.67542	
23	0.220	2088.08569	-2102.16992	1212.67883	
24	0.230	2088.01953	-2102.31616	1212.67041	
25	0.240	2088.06665	-2102.35059	1212.63281	
26	0.250	2088.03149	-2102.35840	1212.64539	
27	0.260	2088.05981	-2102.49463	1212.67798	
28	0.270	2088.10205	-2102.57495	1212.70032	
29	0.280	2088.07983	-2102.80762	1212.88672	
30	0.290	2088.15796	-2102.98926	1212.74988	
31	0.300	2088.25244	-2103.44751	1212.88623	
32	0.310	2088.52661	-2104.06543	1212.81665	
33	0.320	2088.64063	-2104.41113	1212.94263	
34	0.330	2088.70996	-2104.86572	1213.02808	
35	0.340	2089.00684	-2105.40967	1213.17712	
36	0.350	2089.01025	-2105.76685	1213.17322	
37	0.360	2088.80005	-2106.56299	1213.12183	
38	0.370	2088.69458	-2106.99170	1213.15613	
39	0.380	2088.36548	-2107.40161	1213.21863	
40	0.390	2088.21045	-2107.74731	1213.15576	
41	0.400	2087.84131	-2108.55469	1213.03479	
42	0.410	2087.65601	-2109.09033	1213.26807	
43	0.420	2087.32666	-2109.42212	1213.19617	
44	0.430	2087.11328	-2110.50195	1213.11511	
45	0.440	2086.87134	-2111.00977	1213.15222	
46	0.450	2086.59985	-2111.58130	1213.07959	
47	0.460	2086.30273	-2112.02368	1213.03882	
48	0.470	2086.12329	-2112.38647	1213.05286	
49	0.480	2086.02100	-2112.70459	1213.11963	
50	0.490	2085.94409	-2113.00732	1213.15283	
51	0.500	2085.88281	-2113.43677	1213.41675	
52	0.510	2085.51611	-2114.14355	1213.60400	
53	0.520	2084.80811	-2114.35425	1213.96301	
54	0.530	2084.46289	-2115.04028	1213.85059	
55	0.540	2083.99365	-2115.65552	1213.87769	
56	0.550	2083.62476	-2115.95581	1213.76538	
57	0.560	2083.43994	-2116.10303	1213.80322	
58	0.570	2083.23389	-2116.05396	1213.81567	
59	0.580	2083.02026	-2116.13379	1213.91174	
60	0.590	2083.16992	-2116.08936	1213.91626	
61	0.600	2083.21924	-2115.95532	1213.96021	
62	0.610	2083.28564	-2115.84106	1213.84705	
63	0.620	2083.09961	-2115.58691	1213.96912	
64	0.630	2083.00415	-2114.98389	1213.91467	
65	0.640	2082.86499	-2114.14990	1213.75098	
66	0.650	2082.43579	-2113.42358	1213.82068	
67	0.660	2082.28687	-2112.41748	1213.43164	
68	0.670	2081.82910	-2110.79346	1213.85950	
69	0.680	2081.27612	-2109.51245	1213.91907	
70	0.690	2080.85767	-2107.94873	1214.12207	
71	0.700	2079.55200	-2107.12402	1214.06934	
72	0.710	2078.68066	-2105.91748	1213.99377	
73	0.720	2077.09058	-2105.09619	1213.80798	
74	0.730	2075.81519	-2104.10034	1213.96887	
75	0.740	2074.97217	-2103.43115	1213.82764	
76	0.750	2072.55591	-2103.50317	1214.08459	
77	0.760	2070.37964	-2102.87451	1213.95740	
78	0.770	2067.74072	-2102.28833	1213.81018	
79	0.780	2065.76514	-2101.58252	1213.72998	
80	0.790	2063.24683	-2100.77905	1213.54163	
81	0.800	2063.50732	-2099.37476	1213.75696	
82	0.810	2058.93726	-2099.27197	1213.51685	
83	0.820	2059.39771	-2098.23291	1213.94678	
84	0.830	2057.66211	-2097.37891	1214.12024	
85	0.840	2055.52271	-2096.73462	1214.03125	
86	0.850	2053.07935	-2096.43701	1213.66553	
87	0.860	2051.97559	-2096.00708	1213.87488	
88	0.870	2050.39844	-2095.39648	1213.57361	
89	0.880	2045.71887	-2095.43408	1214.47815	
90	0.890	2044.47070	-2095.14795	1214.64783	
91	0.900	2043.67285	-2094.95850	1214.88721	
92	0.910	2043.74927	-2095.03442	1214.60352	
93	0.920	2042.78638	-2094.87476	1214.50488	
94	0.930	2041.92395	-2094.58838	1214.50391	
95	0.940	2041.50073	-2094.38794	1214.41260	
96	0.950	2040.38782	-2094.55933	1214.56409	
97	0.960	2041.93762	-2094.12549	1214.40405	
98	0.970	2038.92444	-2094.97607	1214.44287	
99	0.980	2040.98389	-2094.74951	1214.44751	
100	0.990	2040.64209	-2094.92334	1214.59509	
101	1.000	2039.96436	-2095.10571	1214.69299	
102	1.010	2039.72412	-2095.08301	1214.75366	
103	1.020	2036.94250	-2095.72656	1214.94592	
104	1.030	2036.10120	-2096.01221	1215.28918	
105	1.040	2035.59229	-2096.44775	1215.22290	
106	1.050	2036.45190	-2097.33911	1214.47998	
107	1.060	2036.21948	-2097.52124	1214.46936	
108	1.070	2036.14783	-2097.85425	1214.54749	
109	1.080	2035.73157	-2098.06470	1214.52698	
110	1.090	2035.67102	-2098.24609	1214.35730	
111	1.100	2035.47473	-2098.31934	1214.26575	
112	1.110	2035.51465	-2098.42358	1214.22595	
113	1.120	2035.44275	-2098.74072	1214.33630	
114	1.130	2035.50854	-2098.91797	1214.23950	
115	1.140	2035.53564	-2098.91895	1214.20398	
116	1.150	2035.35913	-2098.57617	1214.25867	
117	1.160	2035.33411	-2098.30078	1214.28101	
118	1.170	2035.05469	-2097.73071	1214.55334	
119	1.180	2034.97498	-2097.29980	1214.50208	
120	1.190	2034.81506	-2097.08105	1214.50452	
121	1.200	2034.82520	-2096.81567	1214.59448	
122	1.210	2034.69336	-2096.32764	1214.61206	
123	1.220	2034.53442	-2096.12280	1214.65515	
124	1.230	2034.51855	-2096.07227	1214.59485	
125	1.240	2034.31396	-2095.81323	1214.61890	
126	1.250	2034.15161	-2095.66577	1214.50623	
127	1.260	2034.11267	-2095.29175	1214.54187	
128	1.270	2033.97864	-2095.11133	1214.47229	
129	1.280	2033.55383	-2094.98169	1214.37378	
130	1.290	2033.54517	-2094.65283	1214.43140	
131	1.300	2033.61560	-2094.51611	1214.37817	
132	1.310	2033.55457	-2094.07056	1214.36658	
133	1.320	2033.26868	-2093.78760	1214.23181	
134	1.330	2033.27625	-2093.70825	1214.24231	
135	1.340	2033.33154	-2093.55322	1214.32446	
136	1.350	2033.43225	-2093.57983	1214.49341	
137	1.360	2033.32581	-2093.51318	1214.32971	
138	1.370	2033.36462	-2093.24951	1214.31628	
139	1.380	2033.55945	-2092.96899	1214.51660	
140	1.390	2033.40698	-2093.20093	1214.31775	
141	1.400	2033.45996	-2093.20703	1214.34106	
142	1.410	2033.56885	-2092.69116	1214.45288	
143	1.420	2037.13782	-2091.68042	1214.03528	
144	1.430	2034.31116	-2091.74927	1214.75696	
145	1.440	2034.34106	-2091.51855	1214.73828	
146	1.450	2037.83813	-2090.55298	1213.98035	
147	1.460	2034.39368	-2091.23926	1214.70532	
148	1.470	2037.83643	-2090.47388	1213.96338	
149	1.480	2037.31714	-2090.51196	1213.86438	
150	1.490	2036.96008	-2090.53979	1213.75000	
151	1.500	2036.31458	-2090.43604	1213.56580	
152	1.510	2032.01587	-2091.07202	1214.13330	
153	1.520	2031.05994	-2090.68335	1214.45959	
154	1.530	2033.08130	-2090.37866	1213.68420	
155	1.540	2031.64001	-2090.48584	1213.89038	
156	1.550	2030.92688	-2090.85742	1214.03357	
157	1.560	2030.08289	-2091.62769	1213.94751	
158	1.570	2029.11731	-2091.91040	1214.10205	
159	1.580	2028.39172	-2092.27417	1213.93372	
160	1.590	2027.23645	-2092.83179	1214.01953	
161	1.600	2025.66577	-2093.83154	1213.99756	
162	1.610	2024.21765	-2095.33521	1214.39319	
163	1.620	2022.10046	-2095.88672	1215.48669	
164	1.630	2021.11438	-2096.55225	1215.98987	
165	1.640	2020.96179	-2097.41040	1215.49854	
166	1.650	2019.71497	-2098.53564	1215.18652	
167	1.660	2016.18420	-2100.83423	1214.77356	
168	1.670	2015.38440	-2102.32886	1214.90332	
169	1.680	2014.92090	-2103.06494	1214.90454	
170	1.690	2014.48901	-2104.11011	1215.18042	
171	1.700	2014.17212	-2105.55688	1215.23169	
172	1.710	2013.86780	-2107.18970	1215.62720	
173	1.720	2012.98694	-2108.94141	1215.51062	
174	1.730	2012.61365	-2110.77515	1215.56506	
175	1.740	2012.40308	-2112.08130	1215.84790	
176	1.750	2012.19775	-2113.27197	1215.83496	
177	1.760	2011.52795	-2115.31543	1216.26245	
178	1.770	2010.97009	-2116.74097	1216.14355	
179	1.780	2010.21338	-2117.95825	1216.22656	
180	1.790	2009.75562	-2119.81396	1216.08228	
181	1.800	2008.85315	-2121.16309	1215.89246	
182	1.810	2008.24084	-2122.27393	1215.95569	
183	1.820	2007.05542	-2123.72217	1216.00830	
184	1.830	2005.49890	-2125.34570	1216.02332	
185	1.840	2004.11584	-2126.80518	1216.28723	
186	1.850	2003.25964	-2127.95068	1216.15112	
187	1.860	2003.06458	-2129.13550	1216.31165	
188	1.870	2002.55518	-2130.53760	1216.17627	
189	1.880	2003.07581	-2131.34473	1216.21704	
190	1.890	2003.11450	-2132.38940	1216.06555	
191	1.900	2003.11890	-2132.85083	1216.15283	
192	1.910	2002.75525	-2133.79517	1216.21619	
193	1.920	2001.73840	-2134.34399	1216.10669	
194	1.930	2001.32239	-2134.02832	1216.54443	
195	1.940	2000.95825	-2134.82520	1216.31262	
196	1.950	2000.44495	-2135.51514	1216.25720	
197	1.960	2000.39050	-2135.84692	1216.29492	
198	1.970	2000.37781	-2135.93945	1216.27344	
199	1.980	2000.37170	-2135.95117	1216.26721	
200	1.990	2000.00269	-2135.91187	1216.05603	
201	2.000	2000.18579	-2136.08862	1216.26965	
202	2.010	2000.25903	-2135.80151	1216.38367	
